<mxfile host="Electron" modified="2024-02-18T17:58:26.416Z" agent="Mozilla/5.0 (Windows NT 10.0; Win64; x64) AppleWebKit/537.36 (KHTML, like Gecko) draw.io/23.1.5 Chrome/120.0.6099.109 Electron/28.1.0 Safari/537.36" etag="AX-U1HtD_N0m_njjCNl3" version="23.1.5" type="device">
  <diagram name="Page-1" id="5f0bae14-7c28-e335-631c-24af17079c00">
    <mxGraphModel dx="1418" dy="828" grid="1" gridSize="10" guides="1" tooltips="1" connect="1" arrows="1" fold="1" page="1" pageScale="1" pageWidth="1100" pageHeight="850" background="none" math="0" shadow="0">
      <root>
        <mxCell id="0" />
        <mxCell id="1" parent="0" />
        <mxCell id="TP9K_S0jGBv5KS9Kelej-22" value="" style="swimlane;startSize=0;" parent="1" vertex="1">
          <mxGeometry x="50" y="660" width="535" height="240" as="geometry">
            <mxRectangle x="30" y="600" width="50" height="40" as="alternateBounds" />
          </mxGeometry>
        </mxCell>
        <mxCell id="TP9K_S0jGBv5KS9Kelej-1" value="&lt;u&gt;CrawlerMasterServer&lt;/u&gt;" style="verticalAlign=top;align=center;spacingTop=8;spacingLeft=2;spacingRight=12;shape=cube;size=10;direction=south;fontStyle=0;html=1;rounded=0;shadow=0;comic=0;labelBackgroundColor=none;strokeWidth=1;fontFamily=Verdana;fontSize=12" parent="TP9K_S0jGBv5KS9Kelej-22" vertex="1">
          <mxGeometry x="320" y="35" width="165" height="60" as="geometry" />
        </mxCell>
        <mxCell id="TP9K_S0jGBv5KS9Kelej-5" value="&lt;u&gt;CrawlerSlaveServer&lt;/u&gt;" style="verticalAlign=top;align=center;spacingTop=8;spacingLeft=2;spacingRight=12;shape=cube;size=10;direction=south;fontStyle=0;html=1;rounded=0;shadow=0;comic=0;labelBackgroundColor=none;strokeWidth=1;fontFamily=Verdana;fontSize=12" parent="TP9K_S0jGBv5KS9Kelej-22" vertex="1">
          <mxGeometry x="50" y="45" width="165" height="60" as="geometry" />
        </mxCell>
        <mxCell id="TP9K_S0jGBv5KS9Kelej-11" value="" style="endArrow=none;html=1;edgeStyle=orthogonalEdgeStyle;rounded=0;exitX=0;exitY=0;exitDx=25;exitDy=0;exitPerimeter=0;entryX=0;entryY=0;entryDx=35;entryDy=165;entryPerimeter=0;" parent="TP9K_S0jGBv5KS9Kelej-22" source="TP9K_S0jGBv5KS9Kelej-5" target="TP9K_S0jGBv5KS9Kelej-1" edge="1">
          <mxGeometry relative="1" as="geometry">
            <mxPoint y="90" as="sourcePoint" />
            <mxPoint x="160" y="90" as="targetPoint" />
          </mxGeometry>
        </mxCell>
        <mxCell id="TP9K_S0jGBv5KS9Kelej-12" value="*" style="edgeLabel;resizable=0;html=1;align=left;verticalAlign=bottom;" parent="TP9K_S0jGBv5KS9Kelej-11" connectable="0" vertex="1">
          <mxGeometry x="-1" relative="1" as="geometry" />
        </mxCell>
        <mxCell id="TP9K_S0jGBv5KS9Kelej-13" value="1" style="edgeLabel;resizable=0;html=1;align=right;verticalAlign=bottom;" parent="TP9K_S0jGBv5KS9Kelej-11" connectable="0" vertex="1">
          <mxGeometry x="1" relative="1" as="geometry" />
        </mxCell>
        <mxCell id="TP9K_S0jGBv5KS9Kelej-14" value="MPI" style="text;align=center;fontStyle=1;verticalAlign=middle;spacingLeft=3;spacingRight=3;strokeColor=none;rotatable=0;points=[[0,0.5],[1,0.5]];portConstraint=eastwest;html=1;" parent="TP9K_S0jGBv5KS9Kelej-22" vertex="1">
          <mxGeometry x="220" y="45" width="80" height="26" as="geometry" />
        </mxCell>
        <mxCell id="TP9K_S0jGBv5KS9Kelej-18" value="&lt;u&gt;CrawlerDatabase&lt;/u&gt;" style="verticalAlign=top;align=center;spacingTop=8;spacingLeft=2;spacingRight=12;shape=cube;size=10;direction=south;fontStyle=0;html=1;rounded=0;shadow=0;comic=0;labelBackgroundColor=none;strokeWidth=1;fontFamily=Verdana;fontSize=12" parent="TP9K_S0jGBv5KS9Kelej-22" vertex="1">
          <mxGeometry x="177.5" y="145" width="165" height="60" as="geometry" />
        </mxCell>
        <mxCell id="TP9K_S0jGBv5KS9Kelej-20" value="" style="endArrow=open;endFill=1;endSize=12;html=1;rounded=0;exitX=0;exitY=0;exitDx=60;exitDy=87.5;exitPerimeter=0;entryX=0;entryY=0;entryDx=0;entryDy=77.5;entryPerimeter=0;" parent="TP9K_S0jGBv5KS9Kelej-22" source="TP9K_S0jGBv5KS9Kelej-1" target="TP9K_S0jGBv5KS9Kelej-18" edge="1">
          <mxGeometry width="160" relative="1" as="geometry">
            <mxPoint x="490" y="185" as="sourcePoint" />
            <mxPoint x="380" y="155" as="targetPoint" />
          </mxGeometry>
        </mxCell>
        <mxCell id="TP9K_S0jGBv5KS9Kelej-23" value="CrawlerHPC" style="text;html=1;strokeColor=none;fillColor=none;align=center;verticalAlign=middle;whiteSpace=wrap;rounded=0;" parent="TP9K_S0jGBv5KS9Kelej-22" vertex="1">
          <mxGeometry x="10" width="100" height="30" as="geometry" />
        </mxCell>
        <mxCell id="TP9K_S0jGBv5KS9Kelej-82" value="TCP" style="text;align=center;fontStyle=1;verticalAlign=middle;spacingLeft=3;spacingRight=3;strokeColor=none;rotatable=0;points=[[0,0.5],[1,0.5]];portConstraint=eastwest;html=1;" parent="TP9K_S0jGBv5KS9Kelej-22" vertex="1">
          <mxGeometry x="330" y="107" width="80" height="26" as="geometry" />
        </mxCell>
        <mxCell id="JCblWlGQWzk6j3e6-2lU-3" value="" style="endArrow=open;endFill=1;endSize=12;html=1;rounded=0;exitX=0;exitY=0;exitDx=60;exitDy=87.5;exitPerimeter=0;entryX=-0.033;entryY=0.645;entryDx=0;entryDy=0;entryPerimeter=0;" parent="TP9K_S0jGBv5KS9Kelej-22" source="TP9K_S0jGBv5KS9Kelej-5" target="TP9K_S0jGBv5KS9Kelej-18" edge="1">
          <mxGeometry width="160" relative="1" as="geometry">
            <mxPoint x="110" y="460" as="sourcePoint" />
            <mxPoint x="270" y="460" as="targetPoint" />
          </mxGeometry>
        </mxCell>
        <mxCell id="JCblWlGQWzk6j3e6-2lU-4" value="TCP" style="text;align=center;fontStyle=1;verticalAlign=middle;spacingLeft=3;spacingRight=3;strokeColor=none;rotatable=0;points=[[0,0.5],[1,0.5]];portConstraint=eastwest;html=1;" parent="TP9K_S0jGBv5KS9Kelej-22" vertex="1">
          <mxGeometry x="97.5" y="119" width="80" height="26" as="geometry" />
        </mxCell>
        <mxCell id="TP9K_S0jGBv5KS9Kelej-25" value="&lt;u&gt;Message Brocker&lt;br&gt;&lt;br&gt;&lt;/u&gt;" style="verticalAlign=top;align=center;spacingTop=8;spacingLeft=2;spacingRight=12;shape=cube;size=10;direction=south;fontStyle=0;html=1;rounded=0;shadow=0;comic=0;labelBackgroundColor=none;strokeWidth=1;fontFamily=Verdana;fontSize=12" parent="1" vertex="1">
          <mxGeometry x="650" y="870" width="165" height="60" as="geometry" />
        </mxCell>
        <mxCell id="TP9K_S0jGBv5KS9Kelej-30" value="" style="endArrow=open;endFill=1;endSize=12;html=1;rounded=0;exitX=0;exitY=0;exitDx=25;exitDy=0;exitPerimeter=0;entryX=0;entryY=0;entryDx=0;entryDy=77.5;entryPerimeter=0;" parent="1" source="TP9K_S0jGBv5KS9Kelej-1" target="TP9K_S0jGBv5KS9Kelej-25" edge="1">
          <mxGeometry width="160" relative="1" as="geometry">
            <mxPoint x="380" y="940" as="sourcePoint" />
            <mxPoint x="540" y="940" as="targetPoint" />
          </mxGeometry>
        </mxCell>
        <mxCell id="TP9K_S0jGBv5KS9Kelej-31" value="&lt;u&gt;Administrator PC&lt;/u&gt;" style="verticalAlign=top;align=center;spacingTop=8;spacingLeft=2;spacingRight=12;shape=cube;size=10;direction=south;fontStyle=0;html=1;rounded=0;shadow=0;comic=0;labelBackgroundColor=none;strokeWidth=1;fontFamily=Verdana;fontSize=12" parent="1" vertex="1">
          <mxGeometry x="695" y="560" width="165" height="60" as="geometry" />
        </mxCell>
        <mxCell id="TP9K_S0jGBv5KS9Kelej-46" value="" style="swimlane;startSize=0;" parent="1" vertex="1">
          <mxGeometry x="460" y="990" width="535" height="240" as="geometry">
            <mxRectangle x="30" y="600" width="50" height="40" as="alternateBounds" />
          </mxGeometry>
        </mxCell>
        <mxCell id="TP9K_S0jGBv5KS9Kelej-55" value="IndexingHPC" style="text;html=1;strokeColor=none;fillColor=none;align=center;verticalAlign=middle;whiteSpace=wrap;rounded=0;" parent="TP9K_S0jGBv5KS9Kelej-46" vertex="1">
          <mxGeometry x="10" width="100" height="30" as="geometry" />
        </mxCell>
        <mxCell id="TP9K_S0jGBv5KS9Kelej-36" value="&lt;u&gt;IndexerMasterServer&lt;/u&gt;" style="verticalAlign=top;align=center;spacingTop=8;spacingLeft=2;spacingRight=12;shape=cube;size=10;direction=south;fontStyle=0;html=1;rounded=0;shadow=0;comic=0;labelBackgroundColor=none;strokeWidth=1;fontFamily=Verdana;fontSize=12" parent="TP9K_S0jGBv5KS9Kelej-46" vertex="1">
          <mxGeometry x="320" y="35" width="165" height="60" as="geometry" />
        </mxCell>
        <mxCell id="TP9K_S0jGBv5KS9Kelej-37" value="&lt;u style=&quot;border-color: var(--border-color);&quot;&gt;Indexer&lt;/u&gt;&lt;u&gt;SlaveServer&lt;/u&gt;" style="verticalAlign=top;align=center;spacingTop=8;spacingLeft=2;spacingRight=12;shape=cube;size=10;direction=south;fontStyle=0;html=1;rounded=0;shadow=0;comic=0;labelBackgroundColor=none;strokeWidth=1;fontFamily=Verdana;fontSize=12" parent="TP9K_S0jGBv5KS9Kelej-46" vertex="1">
          <mxGeometry x="50" y="45" width="165" height="60" as="geometry" />
        </mxCell>
        <mxCell id="TP9K_S0jGBv5KS9Kelej-38" value="" style="endArrow=none;html=1;edgeStyle=orthogonalEdgeStyle;rounded=0;exitX=0;exitY=0;exitDx=25;exitDy=0;exitPerimeter=0;entryX=0;entryY=0;entryDx=35;entryDy=165;entryPerimeter=0;" parent="TP9K_S0jGBv5KS9Kelej-46" source="TP9K_S0jGBv5KS9Kelej-37" target="TP9K_S0jGBv5KS9Kelej-36" edge="1">
          <mxGeometry relative="1" as="geometry">
            <mxPoint y="90" as="sourcePoint" />
            <mxPoint x="160" y="90" as="targetPoint" />
          </mxGeometry>
        </mxCell>
        <mxCell id="TP9K_S0jGBv5KS9Kelej-39" value="*" style="edgeLabel;resizable=0;html=1;align=left;verticalAlign=bottom;" parent="TP9K_S0jGBv5KS9Kelej-38" connectable="0" vertex="1">
          <mxGeometry x="-1" relative="1" as="geometry" />
        </mxCell>
        <mxCell id="TP9K_S0jGBv5KS9Kelej-40" value="1" style="edgeLabel;resizable=0;html=1;align=right;verticalAlign=bottom;" parent="TP9K_S0jGBv5KS9Kelej-38" connectable="0" vertex="1">
          <mxGeometry x="1" relative="1" as="geometry" />
        </mxCell>
        <mxCell id="TP9K_S0jGBv5KS9Kelej-41" value="MPI" style="text;align=center;fontStyle=1;verticalAlign=middle;spacingLeft=3;spacingRight=3;strokeColor=none;rotatable=0;points=[[0,0.5],[1,0.5]];portConstraint=eastwest;html=1;" parent="TP9K_S0jGBv5KS9Kelej-46" vertex="1">
          <mxGeometry x="220" y="45" width="80" height="26" as="geometry" />
        </mxCell>
        <mxCell id="TP9K_S0jGBv5KS9Kelej-42" value="&lt;u&gt;IndexDatabase&lt;/u&gt;" style="verticalAlign=top;align=center;spacingTop=8;spacingLeft=2;spacingRight=12;shape=cube;size=10;direction=south;fontStyle=0;html=1;rounded=0;shadow=0;comic=0;labelBackgroundColor=none;strokeWidth=1;fontFamily=Verdana;fontSize=12" parent="TP9K_S0jGBv5KS9Kelej-46" vertex="1">
          <mxGeometry x="177.5" y="145" width="165" height="60" as="geometry" />
        </mxCell>
        <mxCell id="TP9K_S0jGBv5KS9Kelej-44" value="" style="endArrow=none;endFill=0;html=1;rounded=0;strokeColor=default;entryX=0;entryY=0;entryDx=60;entryDy=87.5;entryPerimeter=0;exitX=0;exitY=0;exitDx=0;exitDy=77.5;exitPerimeter=0;" parent="TP9K_S0jGBv5KS9Kelej-46" source="TP9K_S0jGBv5KS9Kelej-42" target="TP9K_S0jGBv5KS9Kelej-36" edge="1">
          <mxGeometry width="160" relative="1" as="geometry">
            <mxPoint x="-150" y="215" as="sourcePoint" />
            <mxPoint x="10" y="215" as="targetPoint" />
          </mxGeometry>
        </mxCell>
        <mxCell id="TP9K_S0jGBv5KS9Kelej-45" value="" style="endArrow=none;endFill=0;html=1;rounded=0;strokeColor=default;entryX=0;entryY=0;entryDx=0;entryDy=77.5;entryPerimeter=0;exitX=0;exitY=0;exitDx=60;exitDy=87.5;exitPerimeter=0;" parent="TP9K_S0jGBv5KS9Kelej-46" source="TP9K_S0jGBv5KS9Kelej-37" target="TP9K_S0jGBv5KS9Kelej-42" edge="1">
          <mxGeometry width="160" relative="1" as="geometry">
            <mxPoint x="275" y="155" as="sourcePoint" />
            <mxPoint x="408" y="105" as="targetPoint" />
          </mxGeometry>
        </mxCell>
        <mxCell id="TP9K_S0jGBv5KS9Kelej-83" value="TCP" style="text;align=center;fontStyle=1;verticalAlign=middle;spacingLeft=3;spacingRight=3;strokeColor=none;rotatable=0;points=[[0,0.5],[1,0.5]];portConstraint=eastwest;html=1;" parent="TP9K_S0jGBv5KS9Kelej-46" vertex="1">
          <mxGeometry x="120" y="119" width="80" height="26" as="geometry" />
        </mxCell>
        <mxCell id="TP9K_S0jGBv5KS9Kelej-84" value="TCP" style="text;align=center;fontStyle=1;verticalAlign=middle;spacingLeft=3;spacingRight=3;strokeColor=none;rotatable=0;points=[[0,0.5],[1,0.5]];portConstraint=eastwest;html=1;" parent="TP9K_S0jGBv5KS9Kelej-46" vertex="1">
          <mxGeometry x="320" y="110" width="80" height="26" as="geometry" />
        </mxCell>
        <mxCell id="TP9K_S0jGBv5KS9Kelej-56" value="" style="endArrow=open;endFill=1;endSize=12;html=1;rounded=0;entryX=0;entryY=0;entryDx=60;entryDy=87.5;entryPerimeter=0;exitX=0.5;exitY=0;exitDx=0;exitDy=0;" parent="1" source="TP9K_S0jGBv5KS9Kelej-46" target="TP9K_S0jGBv5KS9Kelej-25" edge="1">
          <mxGeometry width="160" relative="1" as="geometry">
            <mxPoint x="430" y="940" as="sourcePoint" />
            <mxPoint x="590" y="940" as="targetPoint" />
          </mxGeometry>
        </mxCell>
        <mxCell id="TP9K_S0jGBv5KS9Kelej-70" value="" style="endArrow=open;endFill=1;endSize=12;html=1;rounded=0;exitX=0;exitY=0;exitDx=60;exitDy=87.5;exitPerimeter=0;entryX=0;entryY=0;entryDx=0;entryDy=155;entryPerimeter=0;" parent="1" source="TP9K_S0jGBv5KS9Kelej-31" target="TP9K_S0jGBv5KS9Kelej-71" edge="1">
          <mxGeometry width="160" relative="1" as="geometry">
            <mxPoint x="750" y="615" as="sourcePoint" />
            <mxPoint x="973" y="825" as="targetPoint" />
          </mxGeometry>
        </mxCell>
        <mxCell id="TP9K_S0jGBv5KS9Kelej-71" value="&lt;u&gt;Searcher&lt;/u&gt;" style="verticalAlign=top;align=center;spacingTop=8;spacingLeft=2;spacingRight=12;shape=cube;size=10;direction=south;fontStyle=0;html=1;rounded=0;shadow=0;comic=0;labelBackgroundColor=none;strokeWidth=1;fontFamily=Verdana;fontSize=12" parent="1" vertex="1">
          <mxGeometry x="930" y="720" width="165" height="50" as="geometry" />
        </mxCell>
        <mxCell id="TP9K_S0jGBv5KS9Kelej-72" value="" style="endArrow=none;html=1;rounded=0;startArrow=classicThin;startFill=1;entryX=1;entryY=1;entryDx=0;entryDy=0;entryPerimeter=0;exitX=0;exitY=0;exitDx=25;exitDy=0;exitPerimeter=0;" parent="1" source="TP9K_S0jGBv5KS9Kelej-25" target="TP9K_S0jGBv5KS9Kelej-71" edge="1">
          <mxGeometry relative="1" as="geometry">
            <mxPoint x="890" y="910" as="sourcePoint" />
            <mxPoint x="1050" y="910" as="targetPoint" />
          </mxGeometry>
        </mxCell>
        <mxCell id="TP9K_S0jGBv5KS9Kelej-73" value="1" style="edgeLabel;resizable=0;html=1;align=left;verticalAlign=bottom;" parent="TP9K_S0jGBv5KS9Kelej-72" connectable="0" vertex="1">
          <mxGeometry x="-1" relative="1" as="geometry" />
        </mxCell>
        <mxCell id="TP9K_S0jGBv5KS9Kelej-74" value="*" style="edgeLabel;resizable=0;html=1;align=right;verticalAlign=bottom;" parent="TP9K_S0jGBv5KS9Kelej-72" connectable="0" vertex="1">
          <mxGeometry x="1" relative="1" as="geometry" />
        </mxCell>
        <mxCell id="TP9K_S0jGBv5KS9Kelej-75" value="&lt;u&gt;WebServer&lt;/u&gt;" style="verticalAlign=top;align=center;spacingTop=8;spacingLeft=2;spacingRight=12;shape=cube;size=10;direction=south;fontStyle=0;html=1;rounded=0;shadow=0;comic=0;labelBackgroundColor=none;strokeWidth=1;fontFamily=Verdana;fontSize=12" parent="1" vertex="1">
          <mxGeometry x="955" y="865" width="165" height="60" as="geometry" />
        </mxCell>
        <mxCell id="TP9K_S0jGBv5KS9Kelej-76" value="" style="endArrow=none;html=1;rounded=0;startArrow=classicThin;startFill=1;entryX=0;entryY=0.515;entryDx=0;entryDy=0;entryPerimeter=0;exitX=1;exitY=0.358;exitDx=0;exitDy=0;exitPerimeter=0;" parent="1" source="TP9K_S0jGBv5KS9Kelej-71" target="TP9K_S0jGBv5KS9Kelej-75" edge="1">
          <mxGeometry relative="1" as="geometry">
            <mxPoint x="825" y="905" as="sourcePoint" />
            <mxPoint x="940" y="780" as="targetPoint" />
          </mxGeometry>
        </mxCell>
        <mxCell id="TP9K_S0jGBv5KS9Kelej-77" value="1" style="edgeLabel;resizable=0;html=1;align=left;verticalAlign=bottom;" parent="TP9K_S0jGBv5KS9Kelej-76" connectable="0" vertex="1">
          <mxGeometry x="-1" relative="1" as="geometry" />
        </mxCell>
        <mxCell id="TP9K_S0jGBv5KS9Kelej-78" value="*" style="edgeLabel;resizable=0;html=1;align=right;verticalAlign=bottom;" parent="TP9K_S0jGBv5KS9Kelej-76" connectable="0" vertex="1">
          <mxGeometry x="1" relative="1" as="geometry" />
        </mxCell>
        <mxCell id="TP9K_S0jGBv5KS9Kelej-79" value="&lt;u&gt;Client&lt;/u&gt;" style="verticalAlign=top;align=center;spacingTop=8;spacingLeft=2;spacingRight=12;shape=cube;size=10;direction=south;fontStyle=0;html=1;rounded=0;shadow=0;comic=0;labelBackgroundColor=none;strokeWidth=1;fontFamily=Verdana;fontSize=12" parent="1" vertex="1">
          <mxGeometry x="1220" y="865" width="165" height="60" as="geometry" />
        </mxCell>
        <mxCell id="TP9K_S0jGBv5KS9Kelej-80" value="" style="endArrow=none;endFill=0;endSize=12;html=1;rounded=0;exitX=0;exitY=0;exitDx=35;exitDy=165;exitPerimeter=0;entryX=0.567;entryY=0.012;entryDx=0;entryDy=0;entryPerimeter=0;" parent="1" source="TP9K_S0jGBv5KS9Kelej-79" target="TP9K_S0jGBv5KS9Kelej-75" edge="1">
          <mxGeometry width="160" relative="1" as="geometry">
            <mxPoint x="748" y="730" as="sourcePoint" />
            <mxPoint x="748" y="880" as="targetPoint" />
          </mxGeometry>
        </mxCell>
        <mxCell id="TP9K_S0jGBv5KS9Kelej-81" value="HTTP" style="text;align=center;fontStyle=1;verticalAlign=middle;spacingLeft=3;spacingRight=3;strokeColor=none;rotatable=0;points=[[0,0.5],[1,0.5]];portConstraint=eastwest;html=1;direction=west;" parent="1" vertex="1">
          <mxGeometry x="1120" y="870" width="90" height="30" as="geometry" />
        </mxCell>
        <mxCell id="TP9K_S0jGBv5KS9Kelej-85" value="AMQP" style="text;align=center;fontStyle=1;verticalAlign=middle;spacingLeft=3;spacingRight=3;strokeColor=none;rotatable=0;points=[[0,0.5],[1,0.5]];portConstraint=eastwest;html=1;direction=west;" parent="1" vertex="1">
          <mxGeometry x="610" y="770" width="90" height="30" as="geometry" />
        </mxCell>
        <mxCell id="TP9K_S0jGBv5KS9Kelej-87" value="AMQP" style="text;align=center;fontStyle=1;verticalAlign=middle;spacingLeft=3;spacingRight=3;strokeColor=none;rotatable=0;points=[[0,0.5],[1,0.5]];portConstraint=eastwest;html=1;direction=west;" parent="1" vertex="1">
          <mxGeometry x="860" y="830" width="90" height="30" as="geometry" />
        </mxCell>
        <mxCell id="TP9K_S0jGBv5KS9Kelej-89" value="AMQP" style="text;align=center;fontStyle=1;verticalAlign=middle;spacingLeft=3;spacingRight=3;strokeColor=none;rotatable=0;points=[[0,0.5],[1,0.5]];portConstraint=eastwest;html=1;direction=west;" parent="1" vertex="1">
          <mxGeometry x="640" y="940" width="90" height="30" as="geometry" />
        </mxCell>
        <mxCell id="TP9K_S0jGBv5KS9Kelej-91" value="HTTP" style="text;align=center;fontStyle=1;verticalAlign=middle;spacingLeft=3;spacingRight=3;strokeColor=none;rotatable=0;points=[[0,0.5],[1,0.5]];portConstraint=eastwest;html=1;direction=west;" parent="1" vertex="1">
          <mxGeometry x="1020" y="800" width="90" height="30" as="geometry" />
        </mxCell>
        <mxCell id="TP9K_S0jGBv5KS9Kelej-92" value="&lt;u&gt;LogsDatabase&lt;/u&gt;" style="verticalAlign=top;align=center;spacingTop=8;spacingLeft=2;spacingRight=12;shape=cube;size=10;direction=south;fontStyle=0;html=1;rounded=0;shadow=0;comic=0;labelBackgroundColor=none;strokeWidth=1;fontFamily=Verdana;fontSize=12" parent="1" vertex="1">
          <mxGeometry x="220" y="990" width="165" height="60" as="geometry" />
        </mxCell>
        <mxCell id="TP9K_S0jGBv5KS9Kelej-93" value="" style="endArrow=open;endFill=1;endSize=12;html=1;rounded=0;exitX=0;exitY=0;exitDx=0;exitDy=77.5;exitPerimeter=0;entryX=0;entryY=0;entryDx=35;entryDy=165;entryPerimeter=0;" parent="1" source="TP9K_S0jGBv5KS9Kelej-92" target="TP9K_S0jGBv5KS9Kelej-25" edge="1">
          <mxGeometry width="160" relative="1" as="geometry">
            <mxPoint x="545" y="730" as="sourcePoint" />
            <mxPoint x="748" y="880" as="targetPoint" />
          </mxGeometry>
        </mxCell>
        <mxCell id="TP9K_S0jGBv5KS9Kelej-94" value="AMQP" style="text;align=center;fontStyle=1;verticalAlign=middle;spacingLeft=3;spacingRight=3;strokeColor=none;rotatable=0;points=[[0,0.5],[1,0.5]];portConstraint=eastwest;html=1;direction=west;" parent="1" vertex="1">
          <mxGeometry x="430" y="910" width="90" height="30" as="geometry" />
        </mxCell>
        <mxCell id="TP9K_S0jGBv5KS9Kelej-95" value="" style="endArrow=open;endFill=1;endSize=12;html=1;rounded=0;exitX=0;exitY=0;exitDx=60;exitDy=87.5;exitPerimeter=0;entryX=0;entryY=0;entryDx=25;entryDy=0;entryPerimeter=0;" parent="1" source="TP9K_S0jGBv5KS9Kelej-31" target="TP9K_S0jGBv5KS9Kelej-1" edge="1">
          <mxGeometry width="160" relative="1" as="geometry">
            <mxPoint x="783" y="630" as="sourcePoint" />
            <mxPoint x="950" y="720" as="targetPoint" />
          </mxGeometry>
        </mxCell>
        <mxCell id="TP9K_S0jGBv5KS9Kelej-96" value="HTTP" style="text;align=center;fontStyle=1;verticalAlign=middle;spacingLeft=3;spacingRight=3;strokeColor=none;rotatable=0;points=[[0,0.5],[1,0.5]];portConstraint=eastwest;html=1;direction=west;" parent="1" vertex="1">
          <mxGeometry x="830" y="650" width="90" height="30" as="geometry" />
        </mxCell>
        <mxCell id="TP9K_S0jGBv5KS9Kelej-97" value="HTTP" style="text;align=center;fontStyle=1;verticalAlign=middle;spacingLeft=3;spacingRight=3;strokeColor=none;rotatable=0;points=[[0,0.5],[1,0.5]];portConstraint=eastwest;html=1;direction=west;" parent="1" vertex="1">
          <mxGeometry x="605" y="640" width="90" height="30" as="geometry" />
        </mxCell>
        <mxCell id="TP9K_S0jGBv5KS9Kelej-98" value="" style="endArrow=open;endFill=1;endSize=12;html=1;rounded=0;exitX=0;exitY=0;exitDx=60;exitDy=87.5;exitPerimeter=0;entryX=0.843;entryY=0.008;entryDx=0;entryDy=0;entryPerimeter=0;" parent="1" source="TP9K_S0jGBv5KS9Kelej-31" target="TP9K_S0jGBv5KS9Kelej-46" edge="1">
          <mxGeometry width="160" relative="1" as="geometry">
            <mxPoint x="783" y="630" as="sourcePoint" />
            <mxPoint x="950" y="720" as="targetPoint" />
          </mxGeometry>
        </mxCell>
        <mxCell id="TP9K_S0jGBv5KS9Kelej-99" value="HTTP" style="text;align=center;fontStyle=1;verticalAlign=middle;spacingLeft=3;spacingRight=3;strokeColor=none;rotatable=0;points=[[0,0.5],[1,0.5]];portConstraint=eastwest;html=1;direction=west;" parent="1" vertex="1">
          <mxGeometry x="725" y="680" width="90" height="30" as="geometry" />
        </mxCell>
      </root>
    </mxGraphModel>
  </diagram>
</mxfile>
